<svg width="204" height="142" viewBox="0 0 204 142" fill="none" xmlns="http://www.w3.org/2000/svg">
<rect x="17" y="4" width="169.2" height="104" rx="50" fill="white"/>
<g filter="url(#filter0_d_1177_582)">
<rect x="30" y="15" width="143.2" height="82" rx="41" fill="#293357"/>
<g clip-path="url(#clip0_1177_582)">
<path d="M70 49.7004C70.8 47.9004 71.6 47.4004 73.5 47.4004C76 47.4004 78.5 47.4004 81 47.4004C81.4 47.4004 81.8 47.2004 82.1 47.0004C87.2 42.8004 92.3 38.6004 97.4 34.4004C97.9 34.0004 98.5 33.6004 99.1 33.4004C100.8 32.9004 102.6 34.2004 102.8 36.0004C102.8 36.3004 102.8 36.5004 102.8 36.8004C102.8 49.9004 102.8 62.9004 102.8 76.0004C102.8 77.7004 102.1 78.8004 100.8 79.3004C99.7 79.7004 98.7 79.4004 97.8 78.7004C95.1 76.5004 92.5 74.3004 89.8 72.1004C87.3 70.0004 84.7 67.9004 82.2 65.8004C81.8 65.5004 81.5 65.4004 81 65.4004C78.5 65.4004 76.1 65.4004 73.6 65.4004C71.6 65.4004 70.9 64.9004 70.1 63.1004C70 58.5004 70 54.1004 70 49.7004Z" fill="#5CE2FF"/>
<path d="M133.201 55.6002C133.001 65.4002 130.201 73.6002 124.401 80.6002C123.301 82.0002 121.601 82.3002 120.301 81.4002C118.701 80.3002 118.101 78.6002 118.901 77.2002C119.101 76.8002 119.401 76.4002 119.701 76.0002C122.301 72.8002 124.101 69.2002 125.301 65.3002C126.401 61.6002 126.801 57.9002 126.501 54.1002C126.101 48.1002 124.101 42.8002 120.701 37.9002C120.001 36.9002 119.201 36.1002 118.501 35.1002C117.601 33.9002 117.701 32.3002 118.901 31.2002C120.101 29.9002 121.601 29.6002 123.001 30.5002C123.301 30.7002 123.501 30.9002 123.801 31.2002C128.801 36.9002 131.801 43.5002 132.901 51.0002C133.101 52.8002 133.101 54.6002 133.201 55.6002Z" fill="#5CE2FF"/>
<path d="M118.798 57.2003C118.598 62.0003 117.098 66.3003 114.298 70.2003C113.198 71.8003 111.398 72.2003 109.998 71.3003C108.198 70.1003 107.698 68.2003 108.898 66.5003C110.398 64.3003 111.498 62.0003 111.898 59.4003C112.698 54.7003 111.798 50.3003 108.998 46.3003C108.798 46.0003 108.498 45.6003 108.298 45.3003C107.298 43.8003 107.698 42.1003 109.398 40.8003C110.698 39.8003 112.498 40.0003 113.598 41.4003C115.298 43.5003 116.698 45.9003 117.598 48.5003C118.498 51.3003 118.898 54.2003 118.798 57.2003Z" fill="#5CE2FF"/>
</g>
</g>
<defs>
<filter id="filter0_d_1177_582" x="0" y="0" width="203.199" height="142" filterUnits="userSpaceOnUse" color-interpolation-filters="sRGB">
<feFlood flood-opacity="0" result="BackgroundImageFix"/>
<feColorMatrix in="SourceAlpha" type="matrix" values="0 0 0 0 0 0 0 0 0 0 0 0 0 0 0 0 0 0 127 0" result="hardAlpha"/>
<feOffset dy="15"/>
<feGaussianBlur stdDeviation="15"/>
<feComposite in2="hardAlpha" operator="out"/>
<feColorMatrix type="matrix" values="0 0 0 0 0.129412 0 0 0 0 0.172549 0 0 0 0 0.32549 0 0 0 0.4 0"/>
<feBlend mode="normal" in2="BackgroundImageFix" result="effect1_dropShadow_1177_582"/>
<feBlend mode="normal" in="SourceGraphic" in2="effect1_dropShadow_1177_582" result="shape"/>
</filter>
<clipPath id="clip0_1177_582">
<rect width="63.2" height="52" fill="white" transform="translate(70 30)"/>
</clipPath>
</defs>
</svg>
