<?xml version="1.0" encoding="utf-8"?>
<!-- Generator: Adobe Illustrator 25.0.1, SVG Export Plug-In . SVG Version: 6.00 Build 0)  -->
<svg version="1.1" id="Capa_1" xmlns="http://www.w3.org/2000/svg" xmlns:xlink="http://www.w3.org/1999/xlink" x="0px" y="0px"
	 viewBox="0 0 308 173.9" style="enable-background:new 0 0 308 173.9;" xml:space="preserve">
<style type="text/css">
	.st0{fill:#1A2C4C;}
</style>
<g>
	<g>
		<polygon class="st0" points="73.2,114.1 88.3,114.1 88.3,121.8 64.6,121.8 64.6,81.7 73.2,81.7 		"/>
		<path class="st0" d="M93.7,108.4V81.7h8.6v26.6c0,4.3,3.5,6.5,7.4,6.5c4,0,7.4-2.2,7.4-6.5V81.7h8.5v26.8c0,9-7.4,13.9-15.9,13.9
			C101.3,122.3,93.7,117.4,93.7,108.4"/>
		<polygon class="st0" points="171.3,81.6 174.4,81.6 174.4,121.8 165.8,121.8 165.8,100.1 155.8,112.7 154.7,112.7 144.6,100.1 
			144.6,121.8 136,121.8 136,81.6 139.1,81.6 155.2,100.6 		"/>
		<polygon class="st0" points="193.7,98.9 193.7,121.8 185.1,121.8 185.1,81.5 187.8,81.5 210.4,104.4 210.4,81.7 218.9,81.7 
			218.9,121.9 216.4,121.9 		"/>
		<rect x="45.3" y="81.7" class="st0" width="8.6" height="40.1"/>
		<path class="st0" d="M237.1,107.1c-0.9-1.6-1.4-3.4-1.4-5.4c0-6.2,5-11.2,11.2-11.2c2,0,3.8,0.5,5.4,1.4l4.7-8.6
			c-3-1.7-6.5-2.6-10.2-2.6c-11.6,0-21.1,9.4-21.1,21.1c0,3.7,0.9,7.1,2.6,10.2L237.1,107.1z"/>
		<path class="st0" d="M265.4,91.5l-8.6,4.8c0.9,1.6,1.4,3.4,1.4,5.4c0,6.2-5,11.2-11.2,11.2c-2,0-3.8-0.5-5.4-1.4l-4.8,8.6
			c3,1.7,6.5,2.6,10.2,2.6c11.6,0,21.1-9.4,21.1-21.1C268,98,267.1,94.6,265.4,91.5"/>
		<path class="st0" d="M255.6,64.2V53.7h2.9c3.1,0,4.9,2.4,4.9,5.3c0,2.9-1.8,5.3-4.9,5.3h-2.9V64.2z M253.1,51.4v15.1h5.5
			c4.8,0,7.4-3.6,7.4-7.6s-2.7-7.5-7.4-7.5C258.5,51.4,253.1,51.4,253.1,51.4z M249.8,51.4h-9.2v15.2h9.3v-2.3h-6.8v-4.4h6.3v-2.2
			h-6.3v-4h6.7V51.4z M228.3,59.2v-5.6h3.8c1.7,0,2.8,1.2,2.8,2.8c0,1.7-1.2,2.8-2.8,2.8C232,59.2,228.3,59.2,228.3,59.2z
			 M234.1,60.9c1.9-0.7,3.2-2.4,3.2-4.5c0-2.7-2-4.9-5.3-4.9h-6.2v15.1h2.5v-5.3h3.3l3.8,5.3h2.5v-0.4L234.1,60.9z M210.7,55.2
			l2.6,6.1H208L210.7,55.2z M214.1,63.4l1.5,3.1h2.6v-0.3l-7-14.9H210l-7,14.9v0.3h2.6l1.5-3.1H214.1z M195.8,51.4h-2.5v15.2h9v-2.3
			h-6.5V51.4L195.8,51.4z M183.7,51.4h-9.2v15.2h9.3v-2.3H177v-4.4h6.3v-2.2H177v-4h6.7V51.4z M160.8,64.2V53.7h3
			c3.1,0,4.9,2.4,4.9,5.3c0,2.9-1.8,5.3-4.9,5.3h-3V64.2z M158.2,51.4v15.1h5.5c4.8,0,7.4-3.6,7.4-7.6s-2.7-7.5-7.4-7.5H158.2z
			 M136.2,59c0-3.5,2.3-5.5,5.2-5.5c2.8,0,5.2,2,5.2,5.5s-2.4,5.5-5.2,5.5C138.5,64.4,136.2,62.5,136.2,59 M149,59
			c0-4.9-3.6-7.8-7.7-7.8c-4.1,0-7.7,2.9-7.7,7.8s3.5,7.8,7.7,7.8C145.9,66.8,149,63.6,149,59 M121.8,59.2v-5.6h3.7
			c1.7,0,2.8,1.2,2.8,2.8c0,1.7-1.2,2.8-2.8,2.8H121.8z M127.6,60.9c1.9-0.7,3.2-2.4,3.2-4.5c0-2.7-2-4.9-5.3-4.9h-6.2v15.1h2.5
			v-5.3h3.3l3.8,5.3h2.5v-0.4L127.6,60.9z M110.7,59.8c0.7,0,1.4,0,2,0.5c0.5,0.4,0.8,1,0.8,1.8c-0.1,1.4-1.1,2.2-2.5,2.2h-4.1v-4.5
			C106.9,59.8,110.7,59.8,110.7,59.8z M110.4,53.6c1.5,0,2.5,0.7,2.5,2.1c0,1.5-1,2-2.5,2h-3.5v-4.2h3.5V53.6z M115.3,55.6
			c0-2.8-2-4.3-4.8-4.3h-6.1v15.2h6.8c2.9,0,4.8-1.8,4.8-4.5c0-1.7-0.9-3-2.4-3.5C114.7,58,115.3,56.9,115.3,55.6 M93.1,59.2
			L87,51.3h-1v15.2h2.5V57l4.4,5.6h0.4l4.4-5.6v9.5h2.5V51.3h-0.9L93.1,59.2z M82.3,51.4h-9.2v15.2h9.4v-2.3h-6.8v-4.4H82v-2.2h-6.3
			v-4h6.7L82.3,51.4L82.3,51.4z M67.5,64.5V53.4h2.2v-2h-6.9v2H65v11.1h-2.4v2h7.3v-2H67.5z M52.3,59.2l-6.2-7.8h-0.9v15.2h2.5v-9.5
			l4.4,5.6h0.3l4.4-5.6v9.5h2.5V51.3h-0.9L52.3,59.2z"/>
	</g>
</g>
</svg>
